<mxfile host="Electron" agent="Mozilla/5.0 (Windows NT 10.0; Win64; x64) AppleWebKit/537.36 (KHTML, like Gecko) draw.io/28.2.5 Chrome/138.0.7204.251 Electron/37.6.1 Safari/537.36" version="28.2.5">
  <diagram name="Page-1" id="KdtmhHhNzTOjUc6dU8ZZ">
    <mxGraphModel dx="1188" dy="701" grid="1" gridSize="10" guides="1" tooltips="1" connect="1" arrows="1" fold="1" page="1" pageScale="1" pageWidth="1169" pageHeight="827" math="0" shadow="0">
      <root>
        <mxCell id="0" />
        <mxCell id="1" parent="0" />
        <mxCell id="CZgZ9lKBinjAfrBnA9I2-14" value="Client" style="shape=umlActor;verticalLabelPosition=bottom;verticalAlign=top;html=1;outlineConnect=0;" vertex="1" parent="1">
          <mxGeometry x="80" y="40" width="40" height="80" as="geometry" />
        </mxCell>
        <mxCell id="CZgZ9lKBinjAfrBnA9I2-15" value="" style="endArrow=none;dashed=1;html=1;rounded=0;exitX=0.5;exitY=0;exitDx=0;exitDy=0;exitPerimeter=0;entryX=0.508;entryY=0.717;entryDx=0;entryDy=0;entryPerimeter=0;" edge="1" parent="1" source="CZgZ9lKBinjAfrBnA9I2-16" target="CZgZ9lKBinjAfrBnA9I2-14">
          <mxGeometry width="50" height="50" relative="1" as="geometry">
            <mxPoint x="100" y="650" as="sourcePoint" />
            <mxPoint x="100" y="150" as="targetPoint" />
          </mxGeometry>
        </mxCell>
        <mxCell id="CZgZ9lKBinjAfrBnA9I2-16" value="Client" style="shape=umlActor;verticalLabelPosition=bottom;verticalAlign=top;html=1;outlineConnect=0;" vertex="1" parent="1">
          <mxGeometry x="80" y="680" width="40" height="80" as="geometry" />
        </mxCell>
        <mxCell id="CZgZ9lKBinjAfrBnA9I2-23" value="" style="html=1;points=[[0,0,0,0,5],[0,1,0,0,-5],[1,0,0,0,5],[1,1,0,0,-5]];perimeter=orthogonalPerimeter;outlineConnect=0;targetShapes=umlLifeline;portConstraint=eastwest;newEdgeStyle={&quot;curved&quot;:0,&quot;rounded&quot;:0};" vertex="1" parent="1">
          <mxGeometry x="420" y="120" width="20" height="540" as="geometry" />
        </mxCell>
        <mxCell id="CZgZ9lKBinjAfrBnA9I2-24" value="Se Conecter()" style="html=1;verticalAlign=bottom;endArrow=block;curved=0;rounded=0;entryX=0;entryY=0;entryDx=0;entryDy=5;" edge="1" target="CZgZ9lKBinjAfrBnA9I2-23" parent="1">
          <mxGeometry relative="1" as="geometry">
            <mxPoint x="100" y="125" as="sourcePoint" />
          </mxGeometry>
        </mxCell>
        <mxCell id="CZgZ9lKBinjAfrBnA9I2-25" value="confirmerRéservation()" style="html=1;verticalAlign=bottom;endArrow=open;dashed=1;endSize=8;curved=0;rounded=0;exitX=0;exitY=1;exitDx=0;exitDy=-5;" edge="1" source="CZgZ9lKBinjAfrBnA9I2-23" parent="1">
          <mxGeometry relative="1" as="geometry">
            <mxPoint x="100" y="655" as="targetPoint" />
          </mxGeometry>
        </mxCell>
        <mxCell id="CZgZ9lKBinjAfrBnA9I2-26" value="" style="endArrow=none;dashed=1;html=1;dashPattern=1 3;strokeWidth=2;rounded=0;entryX=0.578;entryY=1.106;entryDx=0;entryDy=0;entryPerimeter=0;" edge="1" parent="1">
          <mxGeometry width="50" height="50" relative="1" as="geometry">
            <mxPoint x="430.02" y="120" as="sourcePoint" />
            <mxPoint x="430.02" y="83.17999999999995" as="targetPoint" />
          </mxGeometry>
        </mxCell>
        <mxCell id="CZgZ9lKBinjAfrBnA9I2-27" value="Système" style="rounded=0;whiteSpace=wrap;html=1;" vertex="1" parent="1">
          <mxGeometry x="385" y="50" width="90" height="30" as="geometry" />
        </mxCell>
        <mxCell id="CZgZ9lKBinjAfrBnA9I2-29" value="vérifierIdentifiants()" style="html=1;align=left;spacingLeft=2;endArrow=block;rounded=0;edgeStyle=orthogonalEdgeStyle;curved=0;rounded=0;" edge="1" parent="1">
          <mxGeometry relative="1" as="geometry">
            <mxPoint x="440" y="190" as="sourcePoint" />
            <Array as="points">
              <mxPoint x="530" y="190" />
              <mxPoint x="530" y="210" />
            </Array>
            <mxPoint x="440" y="210.0000000000001" as="targetPoint" />
          </mxGeometry>
        </mxCell>
        <mxCell id="CZgZ9lKBinjAfrBnA9I2-30" value="récupérerVoituresDisponibles()" style="html=1;align=left;spacingLeft=2;endArrow=block;rounded=0;edgeStyle=orthogonalEdgeStyle;curved=0;rounded=0;" edge="1" parent="1">
          <mxGeometry relative="1" as="geometry">
            <mxPoint x="440" y="320" as="sourcePoint" />
            <Array as="points">
              <mxPoint x="530" y="320" />
              <mxPoint x="530" y="340" />
            </Array>
            <mxPoint x="440" y="340.0000000000001" as="targetPoint" />
          </mxGeometry>
        </mxCell>
        <mxCell id="CZgZ9lKBinjAfrBnA9I2-31" value="vérifierDisponibilité()" style="html=1;align=left;spacingLeft=2;endArrow=block;rounded=0;edgeStyle=orthogonalEdgeStyle;curved=0;rounded=0;" edge="1" parent="1">
          <mxGeometry relative="1" as="geometry">
            <mxPoint x="440" y="440" as="sourcePoint" />
            <Array as="points">
              <mxPoint x="530" y="440" />
              <mxPoint x="530" y="460" />
            </Array>
            <mxPoint x="440" y="460.0000000000001" as="targetPoint" />
          </mxGeometry>
        </mxCell>
        <mxCell id="CZgZ9lKBinjAfrBnA9I2-32" value="créerLocation()" style="html=1;align=left;spacingLeft=2;endArrow=block;rounded=0;edgeStyle=orthogonalEdgeStyle;curved=0;rounded=0;" edge="1" parent="1">
          <mxGeometry relative="1" as="geometry">
            <mxPoint x="440" y="570" as="sourcePoint" />
            <Array as="points">
              <mxPoint x="530" y="570" />
              <mxPoint x="530" y="590" />
            </Array>
            <mxPoint x="440" y="590.0000000000001" as="targetPoint" />
          </mxGeometry>
        </mxCell>
        <mxCell id="CZgZ9lKBinjAfrBnA9I2-33" value="" style="endArrow=none;dashed=1;html=1;dashPattern=1 3;strokeWidth=2;rounded=0;entryX=0.578;entryY=1.106;entryDx=0;entryDy=0;entryPerimeter=0;" edge="1" parent="1">
          <mxGeometry width="50" height="50" relative="1" as="geometry">
            <mxPoint x="429.58000000000004" y="696.82" as="sourcePoint" />
            <mxPoint x="429.58000000000004" y="660" as="targetPoint" />
          </mxGeometry>
        </mxCell>
        <mxCell id="CZgZ9lKBinjAfrBnA9I2-34" value="Système" style="rounded=0;whiteSpace=wrap;html=1;" vertex="1" parent="1">
          <mxGeometry x="385" y="690" width="90" height="30" as="geometry" />
        </mxCell>
        <mxCell id="CZgZ9lKBinjAfrBnA9I2-35" value="consulterVoitures()" style="html=1;verticalAlign=bottom;endArrow=open;dashed=1;endSize=8;curved=0;rounded=0;" edge="1" parent="1">
          <mxGeometry relative="1" as="geometry">
            <mxPoint x="420" y="270" as="sourcePoint" />
            <mxPoint x="100" y="270" as="targetPoint" />
          </mxGeometry>
        </mxCell>
        <mxCell id="CZgZ9lKBinjAfrBnA9I2-36" value="authentifier()" style="html=1;verticalAlign=bottom;endArrow=block;curved=0;rounded=0;" edge="1" parent="1">
          <mxGeometry width="80" relative="1" as="geometry">
            <mxPoint x="100" y="240" as="sourcePoint" />
            <mxPoint x="420" y="240" as="targetPoint" />
          </mxGeometry>
        </mxCell>
        <mxCell id="CZgZ9lKBinjAfrBnA9I2-37" value="choisirVoiture(dates)" style="html=1;verticalAlign=bottom;endArrow=open;dashed=1;endSize=8;curved=0;rounded=0;" edge="1" parent="1">
          <mxGeometry relative="1" as="geometry">
            <mxPoint x="420" y="407" as="sourcePoint" />
            <mxPoint x="100" y="407" as="targetPoint" />
          </mxGeometry>
        </mxCell>
        <mxCell id="CZgZ9lKBinjAfrBnA9I2-38" value="afficherListeVoitures()" style="html=1;verticalAlign=bottom;endArrow=block;curved=0;rounded=0;" edge="1" parent="1">
          <mxGeometry width="80" relative="1" as="geometry">
            <mxPoint x="100" y="377" as="sourcePoint" />
            <mxPoint x="420" y="377" as="targetPoint" />
          </mxGeometry>
        </mxCell>
        <mxCell id="CZgZ9lKBinjAfrBnA9I2-41" value="confirmerRéservation()" style="html=1;verticalAlign=bottom;endArrow=open;dashed=1;endSize=8;curved=0;rounded=0;" edge="1" parent="1">
          <mxGeometry relative="1" as="geometry">
            <mxPoint x="420" y="530" as="sourcePoint" />
            <mxPoint x="100" y="530" as="targetPoint" />
          </mxGeometry>
        </mxCell>
        <mxCell id="CZgZ9lKBinjAfrBnA9I2-42" value="disponible = true" style="html=1;verticalAlign=bottom;endArrow=block;curved=0;rounded=0;" edge="1" parent="1">
          <mxGeometry width="80" relative="1" as="geometry">
            <mxPoint x="100" y="500" as="sourcePoint" />
            <mxPoint x="420" y="500" as="targetPoint" />
          </mxGeometry>
        </mxCell>
      </root>
    </mxGraphModel>
  </diagram>
</mxfile>
